<svg xmlns="http://www.w3.org/2000/svg" width="20" height="20" viewBox="0 0 20 20">
  <g fill="none" fill-rule="evenodd" stroke="#FFF">
    <path d="M10,12.2586207 C13.0314443,12.2586207 15.8265306,8.88499624 15.8265306,5.51724138 C15.8265306,2.55865316 13.4474541,0.672413793 10,0.672413793 C6.55254589,0.672413793 4.17346939,2.55865316 4.17346939,5.51724138 C4.17346939,8.88499624 6.96855571,12.2586207 10,12.2586207 Z"/>
    <path d="M15.9183673,10.862069 C14.5578231,11.6666667 13.1292517,12.4712644 11.6326531,13.2758621 C9.3877551,14.4827586 9.3877551,16.6635003 9.3877551,17.7586207 C9.3877551,18.4887009 9.93197279,19.1783561 11.0204082,19.8275862 L18.9795918,19.8275862 L19.5918367,19.8275862" transform="matrix(-1 0 0 1 28.98 0)"/>
    <path d="M6.73469388,10.862069 C5.37414966,11.6666667 3.94557823,12.4712644 2.44897959,13.2758621 C0.204081633,14.4827586 0.204081633,16.6635003 0.204081633,17.7586207 C0.204081633,18.4887009 0.74829932,19.1783561 1.83673469,19.8275862 L9.79591837,19.8275862"/>
  </g>
</svg>
