<svg xmlns="http://www.w3.org/2000/svg" width="38" height="36" viewBox="0 0 38 36">
  <g fill="none" fill-rule="evenodd" transform="translate(0 1)">
    <path fill="#A17A59" d="M1.2819426,16 L9.7180574,16 C10.1638168,16 10.3254599,16.0464128 10.4884229,16.1335664 C10.6513858,16.2207199 10.7792801,16.3486142 10.8664336,16.5115771 C10.9535872,16.6745401 11,16.8361832 11,17.2819426 L11,33.7180574 C11,34.1638168 10.9535872,34.3254599 10.8664336,34.4884229 C10.7792801,34.6513858 10.6513858,34.7792801 10.4884229,34.8664336 C10.3254599,34.9535872 10.1638168,35 9.7180574,35 L1.2819426,35 C0.83618323,35 0.674540111,34.9535872 0.511577148,34.8664336 C0.348614185,34.7792801 0.220719898,34.6513858 0.133566352,34.4884229 C0.0464128056,34.3254599 2.00617683e-17,34.1638168 -3.45280103e-17,33.7180574 L3.45280103e-17,17.2819426 C-2.00617683e-17,16.8361832 0.0464128056,16.6745401 0.133566352,16.5115771 C0.220719898,16.3486142 0.348614185,16.2207199 0.511577148,16.1335664 C0.674540111,16.0464128 0.83618323,16 1.2819426,16 Z M1.95556302,17.9000072 L1.95556302,32.981257 L8.92222945,32.981257 L8.92222945,17.9000072 L1.95556302,17.9000072 Z"/>
    <path stroke="#A17A59" stroke-width="1.7" d="M12,17.2265411 C15.3865784,13.778416 17.5684869,11.2111386 18.5457254,9.52470886 C20.0115831,6.99506423 20.187427,3.29350408 20.9259891,1.82287666 C21.6645513,0.352249244 22.1552365,0.188774993 23.3062529,0.0455307682 C24.4572693,-0.0977134569 24.4963848,0.0455307682 25.6865167,1.23042803 C26.4799379,2.02035954 26.4799379,4.4888955 25.6865167,8.63603592 L23.3062529,13.6718493 C22.9095423,14.4617808 23.5046082,14.8567465 25.0914507,14.8567465 C27.4717145,14.8567465 32.2901405,14.426821 34.0174398,14.8567465 C35.7447392,15.2866721 36.8541517,16.4389077 36.9927695,17.8189897 C37.0851815,18.7390443 36.2917602,19.7264587 34.6125058,20.7812329 C35.405927,21.5711644 35.8026377,22.3610959 35.8026377,23.1510274 C35.8026377,23.9409589 35.0092164,24.9283733 33.4223739,26.1132705 C34.0484848,26.7795684 34.2468401,27.5695 34.0174398,28.4830651 C33.7880396,29.3966302 33.1929736,30.1865617 32.232242,30.8528596 C32.232242,31.6427911 32.0338867,32.4327226 31.6371761,33.2226541 C31.2404654,34.0125856 30.6453995,34.6050342 29.8519782,35 L17.3555935,35 L13.7851978,34.4075514 L12,32.6302055 L12,17.2265411 Z"/>
  </g>
</svg>
