<svg xmlns="http://www.w3.org/2000/svg" xmlns:xlink="http://www.w3.org/1999/xlink" width="61" height="28" viewBox="0 0 61 28">
  <defs>
    <polygon id="logo-a" points="0 15.202 0 0 13.62 0 27.24 0 27.24 15.202 0 15.202"/>
  </defs>
  <g fill="none" fill-rule="evenodd">
    <polygon fill="#FFF" fill-rule="nonzero" points="55.564 7 53.551 15.958 51.336 7 46 7 50.329 22 56.269 22 61 7"/>
    <path fill="#FFF" fill-rule="nonzero" d="M38.5502514 17.9408445C37.1135167 17.9408445 35.94858 16.4319555 35.94858 14.5705778 35.94858 12.7092 37.1135167 11.2003111 38.5502514 11.2003111 39.9869861 11.2003111 41.1519227 12.7092 41.1519227 14.5705778 41.1519227 16.4319555 39.9869861 17.9408445 38.5502514 17.9408445M45.9469564 14.5186222C45.9469564 10.3948445 42.589576 7.05195555 38.4480212 7.05195555 34.3064663 7.05195555 30.9493919 10.3948445 30.9493919 14.5186222L39.6166308 21.8944445C43.2032642 21.3356889 45.9469564 18.2463555 45.9469564 14.5186222M19.012005 7.05195555L15.8492907 7.05195555 15.8492907 16.6438222C15.8492907 17.8752 14.8670832 18.8735555 13.6556225 18.8735555 12.4441619 18.8735555 11.4619544 17.8752 11.4619544 16.6438222L11.4619544 7.05195555 8.29924013 7.05195555 8.29924013 16.6438222 8.30444347 16.6438222C8.35892554 19.6028 10.7316499 21.9852889 13.6556225 21.9852889 16.5799013 21.9852889 18.9526256 19.6028 19.0071077 16.6438222L19.012005 16.6438222 19.012005 7.05195555z"/>
    <mask id="logo-b" fill="#fff">
      <use xlink:href="#logo-a"/>
    </mask>
    <path fill="#FFF" fill-rule="nonzero" d="M2.56025897,13.9611111 C2.56025897,7.75413332 7.51078065,2.72222222 13.6173627,2.72222222 C17.2052207,2.72222222 20.3927273,4.4604 22.4125426,7.15213332 L27.2403266,11.2603555 C25.9869331,4.84057777 20.4166015,0 13.7321423,0 C6.46796948,0 0.521772862,5.71697777 -9.18236976e-05,12.9652445 L2.62882066,15.2021334 C2.58474528,14.7945778 2.56025897,14.3808 2.56025897,13.9611111" mask="url(#logo-b)"/>
    <path fill="#FFF" fill-rule="nonzero" d="M24.6744663,13.9611111 C24.6744663,20.1680889 19.7239447,25.2 13.6173627,25.2 C9.85871262,25.2 6.53989805,23.2919555 4.54242655,20.3787111 L0.216612104,16.6976445 C1.45408948,23.1382666 7.03329739,28 13.7321423,28 C21.00764,28 26.9611826,22.2652889 27.466825,15.0014666 L24.5844791,12.5486667 C24.6417159,13.0116 24.6744663,13.4823111 24.6744663,13.9611111"/>
  </g>
</svg>
